<?xml version="1.0" encoding="utf-8"?>
<!-- Generator: Adobe Illustrator 17.0.0, SVG Export Plug-In . SVG Version: 6.00 Build 0)  -->
<!DOCTYPE svg PUBLIC "-//W3C//DTD SVG 1.1//EN" "http://www.w3.org/Graphics/SVG/1.1/DTD/svg11.dtd">
<svg version="1.1" id="XMLID_2_" xmlns="http://www.w3.org/2000/svg" xmlns:xlink="http://www.w3.org/1999/xlink" x="0px" y="0px"
	 width="206.0129px" height="258.5187px" viewBox="0 0 206.0129 258.5187" enable-background="new 0 0 206.0129 258.5187"
	 xml:space="preserve">
<g id="btn_x5F_warehouse4">
	<polygon opacity="0.4" points="197.781,105.7426 186.8193,242.5281 21.3093,242.1131 5.1936,105.7426 103.2206,33.2911 	"/>
	<g>
		<g>
			<defs>
				<polygon id="XMLID_2011_" points="135.8456,92.4471 145.8456,38.4471 169.8456,42.7671 169.8456,106.4871 				"/>
			</defs>
			<use xlink:href="#XMLID_2011_"  overflow="visible" fill="#DEE0E2"/>
			<clipPath id="XMLID_3_">
				<use xlink:href="#XMLID_2011_"  overflow="visible"/>
			</clipPath>
			<polygon opacity="0.1" clip-path="url(#XMLID_3_)" points="142.5767,52.5613 171.2017,57.6913 171.6368,41.3544 
				144.2862,38.4471 			"/>
			<polygon opacity="0.1" clip-path="url(#XMLID_3_)" points="137.5123,57.8831 174.0123,80.2031 174.0123,93.7554 
				132.5123,64.0031 			"/>
		</g>
		<polygon fill="#8CBBE5" points="143.9901,37.3671 143.0569,50.0386 170.4066,54.6286 171.1566,41.8036 		"/>
	</g>
	<g>
		<defs>
			<polygon id="XMLID_2009_" points="183.9208,232.4194 23.3161,232.4194 17.8108,114.8224 100.466,53.6635 188.2021,114.8224 			
				"/>
		</defs>
		<use xlink:href="#XMLID_2009_"  overflow="visible" fill="#DC4A41"/>
		<clipPath id="XMLID_4_">
			<use xlink:href="#XMLID_2009_"  overflow="visible"/>
		</clipPath>
		<polygon opacity="0.1" clip-path="url(#XMLID_4_)" points="69.2389,144.6431 66.9889,227.8031 139.7389,227.8031 
			136.7389,144.6431 		"/>
		<polygon opacity="0.05" clip-path="url(#XMLID_4_)" points="194.2198,194.6963 17.4375,194.6963 17.4375,182.8215 
			193.9052,188.8506 		"/>
		<polygon opacity="0.05" clip-path="url(#XMLID_4_)" points="195.9069,172.746 17.8108,176.8351 17.8108,161.2275 
			195.9069,163.675 		"/>
		<polygon opacity="0.05" clip-path="url(#XMLID_4_)" points="197.5939,154.8135 15.7934,150.7957 15.7934,141.7247 
			197.5939,141.7247 		"/>
		<g clip-path="url(#XMLID_4_)">
			<path opacity="0.1" d="M197.781,109.9197l-91.3276-66.7325c-0.0244-0.0177-0.0498-0.0311-0.0742-0.0485
				c-0.1289-0.0922-0.2627-0.1738-0.395-0.2582c-0.1245-0.0794-0.2476-0.1629-0.374-0.2349
				c-0.1001-0.0569-0.2041-0.1045-0.3062-0.1571c-0.1655-0.0857-0.3306-0.1735-0.499-0.2471
				c-0.042-0.0183-0.0854-0.0318-0.1279-0.0494c-1.0342-0.432-2.1147-0.6492-3.1895-0.6478
				c-1.0752-0.0014-2.1558,0.2157-3.1899,0.6478c-0.0425,0.0176-0.0859,0.031-0.1279,0.0494
				c-0.1685,0.0736-0.333,0.1614-0.4985,0.2471c-0.1025,0.0527-0.2061,0.1002-0.3066,0.1571
				c-0.1265,0.072-0.2495,0.1556-0.374,0.2349c-0.1323,0.0844-0.2661,0.166-0.3945,0.2582
				c-0.0244,0.0174-0.0503,0.0308-0.0742,0.0485L5.1936,109.9197c-4.0518,2.9605-5.1143,8.9078-2.373,13.2835
				c2.7412,4.3758,8.248,5.5231,12.2998,2.5626l86.3672-51.6827l86.3667,51.6827c4.0518,2.9605,9.5586,1.8132,12.2998-2.5626
				C202.8952,118.8274,201.8327,112.8802,197.781,109.9197z"/>
		</g>
		<polygon opacity="0.1" clip-path="url(#XMLID_4_)" points="12.7993,223.028 19.7527,242.0472 35.4482,242.2932 18.0592,133.8911 
			12.7993,132.1485 		"/>
		<polygon opacity="0.1" clip-path="url(#XMLID_4_)" points="188.1149,120.6131 166.8752,258.5187 188.1149,258.4276 
			193.7815,120.6131 		"/>
		<rect x="15.7504" y="207.5756" opacity="0.05" clip-path="url(#XMLID_4_)" width="176.7824" height="9.071"/>
		<polygon clip-path="url(#XMLID_4_)" fill="#DEE0E2" points="137.9692,242.7875 68.7586,242.7875 70.8872,142.413 
			135.1256,142.413 		"/>
		<polygon clip-path="url(#XMLID_4_)" fill="#E3E3E3" points="75.3148,148.1856 75.3148,234.9892 80.0659,235.203 79.1421,147.0225 
					"/>
		<polygon clip-path="url(#XMLID_4_)" fill="#E3E3E3" points="129.689,148.6132 131.1408,234.8466 124.278,234.8466 
			125.7297,148.6132 		"/>
		<rect x="78.0629" y="150.1098" clip-path="url(#XMLID_4_)" fill="#404451" width="49.8871" height="85.0931"/>
		<rect x="101.4873" y="143.0414" opacity="0.1" clip-path="url(#XMLID_4_)" width="4.7487" height="84.4917"/>
		<rect x="88.986" y="182.1731" clip-path="url(#XMLID_4_)" fill="#4C5468" width="6.25" height="11.88"/>
		<rect x="112.7624" y="182.1731" clip-path="url(#XMLID_4_)" fill="#4C5468" width="6.25" height="11.88"/>
		<polygon opacity="0.1" clip-path="url(#XMLID_4_)" points="138.8649,156.3432 66.7815,153.0132 66.9482,139.005 138.741,141.1581 
					"/>
		<g clip-path="url(#XMLID_4_)">
			<defs>
				<polygon id="XMLID_2010_" points="138.7815,151.9237 66.9482,149.7705 66.9482,139.005 138.7815,139.005 				"/>
			</defs>
			<use xlink:href="#XMLID_2010_"  overflow="visible" fill="#FFF8E3"/>
			<clipPath id="XMLID_5_">
				<use xlink:href="#XMLID_2010_"  overflow="visible"/>
			</clipPath>
			<polygon clip-path="url(#XMLID_5_)" fill="#DEE0E2" points="140.9439,142.5732 65.0515,143.0231 64.8661,135.7753 
				140.8636,135.7753 			"/>
		</g>
		<polygon opacity="0.1" clip-path="url(#XMLID_4_)" points="188.2021,233.5631 17.8108,233.5631 17.8108,218.0803 
			188.2021,211.8512 		"/>
	</g>
	<g>
		<defs>
			<polygon id="XMLID_2008_" points="123.8333,127.4098 81.9002,126.3306 81.9002,88.9462 123.8333,87.4731 			"/>
		</defs>
		<use xlink:href="#XMLID_2008_"  overflow="visible" fill="#C9CFD3"/>
		<clipPath id="XMLID_6_">
			<use xlink:href="#XMLID_2008_"  overflow="visible"/>
		</clipPath>
		<polygon clip-path="url(#XMLID_6_)" fill="#FFFFFF" points="80.3002,94.1731 126.7349,90.6789 126.5146,84.3881 80.9818,86.7516 
					"/>
	</g>
	<polygon opacity="0.1" points="117.106,121.115 89.1158,120.6499 88.9722,95.2262 116.8189,94.2961 	"/>
	<g>
		<defs>
			<polygon id="XMLID_2007_" points="115.8874,119.2466 89.8461,120.6621 89.8461,96.0302 115.8874,96.0302 			"/>
		</defs>
		<use xlink:href="#XMLID_2007_"  overflow="visible" fill="#404451"/>
		<clipPath id="XMLID_7_">
			<use xlink:href="#XMLID_2007_"  overflow="visible"/>
		</clipPath>
		<polygon opacity="0.1" clip-path="url(#XMLID_7_)" points="113.2304,97.2415 91.1253,97.3965 91.2994,117.5636 118.2543,118.7897 
			117.9194,121.6834 88.6373,119.2031 88.0631,94.6061 117.2495,94.5028 117.4409,96.6731 		"/>
	</g>
	<g>
		<defs>
			<path id="XMLID_2005_" d="M199.3001,105.7426l-91.3276-66.7325c-0.0244-0.0177-0.0498-0.0311-0.0742-0.0485
				c-0.1289-0.0922-0.2627-0.1738-0.395-0.2582c-0.1245-0.0794-0.2476-0.1629-0.374-0.2349
				c-0.1001-0.057-0.2041-0.1045-0.3062-0.1572c-0.1655-0.0857-0.3306-0.1735-0.499-0.2471
				c-0.042-0.0183-0.0854-0.0318-0.1279-0.0494c-1.0342-0.432-2.1147-0.6492-3.1895-0.6478
				c-1.0752-0.0014-2.1558,0.2158-3.1899,0.6478c-0.0425,0.0176-0.0859,0.031-0.1279,0.0494
				c-0.1685,0.0736-0.333,0.1614-0.4985,0.2471c-0.1025,0.0527-0.2061,0.1002-0.3066,0.1572
				c-0.1265,0.072-0.2495,0.1556-0.374,0.2349c-0.1323,0.0844-0.2661,0.166-0.3945,0.2582
				c-0.0244,0.0174-0.0503,0.0308-0.0742,0.0485L6.7127,105.7426l9.9268,15.8462l86.3672-54.5257l86.3667,54.5257L199.3001,105.7426
				z"/>
		</defs>
		<use xlink:href="#XMLID_2005_"  overflow="visible" fill="#DEE0E2"/>
		<clipPath id="XMLID_8_">
			<use xlink:href="#XMLID_2005_"  overflow="visible"/>
		</clipPath>
		<path id="XMLID_2006_" clip-path="url(#XMLID_8_)" fill="#FFF8E3" d="M206.0129,97.8226l-97.6942-66.7325
			c-0.0261-0.0177-0.0533-0.0311-0.0794-0.0485c-0.1379-0.0922-0.281-0.1738-0.4226-0.2582
			c-0.1332-0.0794-0.2648-0.1629-0.4001-0.2349c-0.1071-0.057-0.2183-0.1045-0.3275-0.1571
			c-0.1771-0.0857-0.3536-0.1735-0.5338-0.2471c-0.0449-0.0183-0.0914-0.0318-0.1368-0.0494
			c-1.1063-0.432-2.2622-0.6492-3.4118-0.6478c-1.1501-0.0014-2.306,0.2157-3.4123,0.6478
			c-0.0454,0.0176-0.0919,0.031-0.1368,0.0494c-0.1802,0.0736-0.3562,0.1614-0.5333,0.2471
			c-0.1097,0.0527-0.2204,0.1002-0.328,0.1571c-0.1353,0.072-0.2669,0.1556-0.4001,0.2349c-0.1415,0.0844-0.2847,0.166-0.422,0.2582
			c-0.0261,0.0174-0.0538,0.0308-0.0794,0.0485L0,97.8226l10.6188,20.1662l92.3879-58.8457l92.3874,58.8457L206.0129,97.8226z"/>
	</g>
	<polygon opacity="0.1" points="80.5991,89.4981 80.3083,99.0211 125.4252,99.0211 125.4252,88.4897 	"/>
	<g>
		<defs>
			<polygon id="XMLID_2004_" points="80.5991,87.4731 80.3083,96.9961 125.4252,96.9961 125.4252,86.4647 			"/>
		</defs>
		<use xlink:href="#XMLID_2004_"  overflow="visible" fill="#F7F5F5"/>
		<clipPath id="XMLID_9_">
			<use xlink:href="#XMLID_2004_"  overflow="visible"/>
		</clipPath>
		<polygon clip-path="url(#XMLID_9_)" fill="#FFFFFF" points="78.1373,89.1581 128.2623,88.4897 127.0123,84.7031 78.6373,86.4647 
					"/>
	</g>
	<polygon fill="#FFFFFF" points="80.7714,119.8731 80.4806,129.3961 125.5976,129.3961 125.5976,118.8647 	"/>
	<g>
		<defs>
			<polygon id="XMLID_2003_" points="17.1431,223.8292 19.716,238.4121 187.286,238.4121 188.8698,223.8292 			"/>
		</defs>
		<use xlink:href="#XMLID_2003_"  overflow="visible" fill="#FFF8E3"/>
		<clipPath id="XMLID_10_">
			<use xlink:href="#XMLID_2003_"  overflow="visible"/>
		</clipPath>
		<rect x="13.5683" y="234.5531" clip-path="url(#XMLID_10_)" fill="#DEE0E2" width="177.5" height="8.37"/>
	</g>
	<path fill="#FFFFFF" d="M173.1258,34.2576c-5.2987,6.8996-15.5109,2.9249-16.13-4.0156c0,0-6.2546,6.9671-11.1441,4.5402
		s-8.6586-7.1174-6.3144-13.4141s9.5213-9.3586,14.4124-7.223c0,0-7.3953-13.1436,6.7901-14.1356
		c5.2081-0.3642,6.1053,9.8584,6.1053,9.8584s9.9305-7.5039,13.342,0.0787s-6.8881,8.979-6.8881,8.979
		S178.6921,27.0096,173.1258,34.2576z"/>
</g>
</svg>
